PathFileType  4	(X/Y/Z) C:\Users\antoi\Documents\MyRepositories\mobilecap\ResultsAnalysis
DataRate	CameraRate	NumFrames	NumMarkers	Units	OrigDataRate	OrigDataStartFrame	OrigNumFrames
100.0	100.0	5	51	mm	100.0	1	270
Frame#	Time	r_knee			r_shank_antsup			r_ankle			r_calc			r_5meta			r_toe			L_knee			L_shank_antsup			L_ankle			L_calc			L_5meta			L_toe			r_sh2			r_sh3			r_sh4			L_sh2			L_sh3			r_thigh1			r_thigh2			r_thigh3			r_thigh4			r_thigh5			L_thigh1			L_thigh2			L_thigh3			L_thigh4			r.ASIS			r.PSIS			L.ASIS			L.PSIS			C7			R_Shoulder			L_Shoulder			R_Sternum			L_Sternum			R_humerus			R_elbow_med			R_elbow_lat			R_forearm			R_wrist_radius			R_wrist_ulna			L_humerus			L_elbow_med			L_elbow_lat			L_forearm			L_wrist_radius			L_wrist_ulna			R_HJC			L_HJC			R_HJC_reg			L_HJC_reg			
		X1	Y1	Z1	X2	Y2	Z2	X3	Y3	Z3	X4	Y4	Z4	X5	Y5	Z5	X6	Y6	Z6	X7	Y7	Z7	X8	Y8	Z8	X9	Y9	Z9	X10	Y10	Z10	X11	Y11	Z11	X12	Y12	Z12	X13	Y13	Z13	X14	Y14	Z14	X15	Y15	Z15	X16	Y16	Z16	X17	Y17	Z17	X18	Y18	Z18	X19	Y19	Z19	X20	Y20	Z20	X21	Y21	Z21	X22	Y22	Z22	X23	Y23	Z23	X24	Y24	Z24	X25	Y25	Z25	X26	Y26	Z26	X27	Y27	Z27	X28	Y28	Z28	X29	Y29	Z29	X30	Y30	Z30	X31	Y31	Z31	X32	Y32	Z32	X33	Y33	Z33	X34	Y34	Z34	X35	Y35	Z35	X36	Y36	Z36	X37	Y37	Z37	X38	Y38	Z38	X39	Y39	Z39	X40	Y40	Z40	X41	Y41	Z41	X42	Y42	Z42	X43	Y43	Z43	X44	Y44	Z44	X45	Y45	Z45	X46	Y46	Z46	X47	Y47	Z47	X48	Y48	Z48	X49	Y49	Z49	X50	Y50	Z50	X51	Y51	Z51	

1	0.00000000	-1228.60512	846.51456	-449.34516	-1206.80790	767.71621	-432.09629	-1274.36998	408.85723	-448.07332	-1331.29663	358.57523	-495.13589	-1135.90062	346.21722	-397.20086	-1097.66015	369.46314	-455.99740	-1192.14975	843.59619	-755.62189	-1173.57664	723.57900	-767.21162	-1265.40100	406.17541	-750.70667	-1334.63349	361.49476	-714.04676	-1115.94790	339.50383	-785.56503	-1091.69791	366.48456	-721.57479	-1215.43621	655.16083	-421.56787	-1280.25029	773.55209	-419.43841	-1297.49437	658.10391	-417.42353	-1258.19420	744.39015	-789.95740	-1272.69186	622.02538	-785.54447	-1167.67123	1167.36563	-423.51498	-1152.84638	1057.14686	-431.43489	-1206.05895	1024.44764	-407.23804	-1278.73500	1149.40006	-426.67917	-1258.71416	1034.55461	-422.77743	-1135.36228	1171.21699	-776.41727	-1119.52719	1032.06712	-773.47166	-1252.31426	1153.85962	-796.17407	-1228.15961	1015.23206	-789.02090	-1139.88831	1354.46546	-471.94046	-1322.01153	1419.16738	-561.75624	-1124.33025	1350.01225	-732.26956	-1316.62870	1415.57662	-668.79701	-1271.92821	1924.79314	-626.40073	-1244.70955	1883.83904	-451.66924	-1208.18346	1884.29834	-781.46372	-1136.13956	1839.20415	-580.27649	-1132.57326	1833.48723	-638.93231	-1291.64829	1621.97668	-354.95391	-1318.40778	1527.58304	-430.14428	-1318.58759	1534.88929	-343.05571	-1230.08682	1401.43330	-321.98505	-1170.34038	1301.47224	-330.68568	-1210.36810	1294.25835	-310.80509	-1231.20552	1626.97050	-869.98127	-1289.87785	1537.56554	-814.20625	-1260.62919	1539.22386	-877.98417	-1182.31768	1382.99606	-878.67314	-1132.07385	1297.40195	-859.44186	-1166.49615	1284.99630	-876.99693	-1234.22187	1287.94360	-484.44455	-1217.99560	1283.43321	-714.19612	-1221.24671	1291.12754	-510.99262	-1212.60552	1285.36321	-682.82780	
2	0.01000000	-1228.27902	846.56662	-449.34039	-1206.54538	767.64034	-432.07271	-1274.39010	408.76423	-448.06715	-1331.34712	358.52914	-495.11410	-1135.92671	346.24160	-397.31820	-1097.68372	369.52818	-456.02901	-1191.76266	843.34251	-755.52595	-1173.17082	723.32590	-767.08630	-1265.38845	406.03176	-750.55287	-1334.76304	361.41256	-714.01047	-1116.07951	339.59888	-785.49031	-1091.76485	366.57008	-721.58397	-1215.39137	655.05265	-421.77694	-1279.86357	773.51753	-419.64458	-1297.33475	658.11211	-417.50748	-1257.65646	744.26448	-790.01363	-1272.56256	621.94592	-785.49838	-1167.78259	1167.53941	-423.54779	-1153.38387	1057.38398	-432.15397	-1205.95299	1024.42960	-407.66595	-1278.84269	1149.22426	-426.97044	-1258.68815	1034.44291	-423.17630	-1135.35038	1171.23383	-776.45345	-1119.38838	1032.04428	-773.54441	-1252.10242	1153.83707	-797.93430	-1228.03162	1015.06879	-789.11097	-1140.23830	1354.41608	-472.20279	-1322.40370	1418.94994	-561.98454	-1124.61247	1349.90519	-732.68169	-1316.96751	1415.27771	-669.02445	-1271.82844	1924.77826	-627.19466	-1244.29045	1884.15297	-452.11283	-1207.85510	1884.21695	-781.94502	-1135.83873	1839.18577	-580.69479	-1132.24213	1833.41227	-639.17112	-1291.88148	1622.40857	-355.35196	-1318.75384	1528.36407	-430.33151	-1319.15508	1535.51723	-343.23129	-1230.24617	1402.17106	-322.31846	-1170.10279	1302.33158	-330.80307	-1209.96994	1295.00502	-311.12601	-1231.66531	1627.30837	-870.43954	-1290.34448	1537.87045	-814.82526	-1261.55928	1539.47583	-878.49255	-1182.11568	1383.76178	-879.83329	-1131.03614	1298.42849	-859.97752	-1165.53781	1285.72558	-877.41650	-1234.45203	1287.79176	-484.70687	-1218.26078	1283.25166	-714.46028	-1221.58070	1291.02115	-511.27312	-1212.84911	1285.12292	-683.20029	
3	0.02000000	-1227.81205	846.65854	-449.28496	-1206.15569	767.54661	-432.26139	-1274.39804	408.73456	-448.06890	-1331.40589	358.47180	-495.15490	-1135.98087	346.29174	-397.41235	-1097.74284	369.57948	-456.09581	-1191.28738	843.21490	-755.65251	-1172.72419	722.99471	-766.85247	-1265.19602	406.47287	-751.27449	-1335.13735	361.34114	-713.95883	-1116.17427	339.73236	-785.43511	-1091.87889	366.63517	-721.47969	-1215.20427	655.01485	-421.93493	-1279.40705	773.51836	-419.76761	-1296.99150	658.04323	-417.58425	-1257.07889	744.11038	-790.19736	-1272.20814	621.78108	-785.59205	-1167.73608	1167.84290	-423.79360	-1153.86748	1057.48535	-432.67482	-1205.74229	1024.42026	-408.05723	-1278.83794	1149.09869	-427.22930	-1258.55704	1034.37617	-423.42987	-1135.62008	1171.29633	-776.55988	-1119.25535	1032.01521	-773.63170	-1252.05675	1153.75532	-798.35941	-1227.88680	1014.90147	-789.19089	-1140.53652	1354.44202	-472.36687	-1322.81908	1418.79142	-562.28185	-1124.87877	1349.75741	-733.07217	-1317.30659	1414.92017	-669.22931	-1271.62965	1924.65533	-627.78940	-1243.94590	1884.47088	-452.65993	-1207.44180	1884.20076	-782.42938	-1135.48278	1839.10501	-581.09297	-1131.86954	1833.32804	-639.51337	-1292.23204	1623.02468	-355.77339	-1319.65258	1528.83809	-430.73902	-1319.81578	1536.16521	-343.65296	-1230.48660	1402.91801	-322.60614	-1170.04083	1303.20689	-331.18191	-1209.86134	1295.85415	-311.37099	-1232.23607	1627.77827	-871.16187	-1291.05298	1538.33099	-815.73260	-1262.64158	1539.99205	-879.24317	-1181.99473	1384.67940	-880.76023	-1130.20326	1299.77197	-860.69913	-1164.67615	1286.55606	-877.77635	-1234.66606	1287.72114	-484.89411	-1218.49729	1283.01770	-714.64577	-1221.93884	1291.03840	-511.42292	-1213.06982	1284.81030	-683.48425	
4	0.03000000	-1227.24138	846.63924	-449.42192	-1205.60571	767.42241	-432.56984	-1274.42349	408.79311	-448.04772	-1331.48414	358.41012	-495.21412	-1136.04726	346.40117	-397.47381	-1097.82402	369.65994	-456.23040	-1190.77869	843.12989	-755.81699	-1172.22011	722.69300	-766.71154	-1264.92800	407.23327	-752.49001	-1335.41001	361.25960	-713.94329	-1116.25277	339.90693	-785.38860	-1092.03029	366.76098	-721.37719	-1214.79035	654.88799	-422.09026	-1278.91819	773.42344	-419.88432	-1296.47329	657.92558	-417.68824	-1256.48286	743.91472	-790.39218	-1271.66616	621.59057	-785.77297	-1167.39911	1168.07244	-424.21679	-1153.62408	1057.46397	-433.01998	-1205.39608	1024.40265	-408.39503	-1278.69146	1148.94499	-427.39107	-1258.31195	1034.25529	-423.58172	-1136.08444	1171.16254	-776.80346	-1119.08959	1031.96804	-773.72901	-1252.08609	1153.54298	-798.09840	-1227.69738	1014.73027	-789.28069	-1140.83082	1354.50134	-472.53570	-1323.23614	1418.62063	-562.59960	-1125.13781	1349.59082	-733.38821	-1317.61954	1414.60984	-669.53051	-1271.17859	1924.52936	-628.20530	-1243.66428	1884.83705	-453.27524	-1206.93532	1884.26793	-782.85891	-1135.04689	1839.01241	-581.48537	-1131.41683	1833.21721	-639.98542	-1292.75052	1623.87339	-356.20085	-1320.92214	1529.20964	-431.28900	-1320.62696	1536.91097	-344.23474	-1230.91821	1403.78272	-322.92853	-1170.22278	1304.26174	-331.65727	-1210.08476	1296.87251	-311.50885	-1232.98523	1628.46102	-872.13180	-1292.03388	1538.98224	-816.70362	-1263.97521	1540.77351	-880.20103	-1182.03165	1385.77441	-881.54492	-1129.56478	1301.48137	-861.65520	-1163.83343	1287.76495	-878.58312	-1234.90702	1287.68338	-485.07970	-1218.70651	1282.77888	-714.82500	-1222.27098	1290.98866	-511.61515	-1213.22903	1284.53230	-683.76131	
5	0.04000000	-1226.62488	846.46289	-449.85482	-1204.92204	767.31177	-432.79541	-1274.47987	408.90065	-448.00163	-1331.57136	358.36929	-495.25999	-1136.08982	346.56277	-397.53832	-1097.90129	369.79109	-456.40494	-1190.24156	842.97242	-755.92315	-1171.63566	722.44825	-766.73744	-1264.86010	407.61217	-753.13379	-1335.29512	361.17325	-714.04586	-1116.35009	340.08726	-785.30781	-1092.19184	367.00731	-721.35327	-1214.16727	654.61965	-422.29198	-1278.38550	773.26875	-419.99157	-1295.92346	657.83551	-417.84300	-1255.91275	743.68246	-790.42987	-1271.17245	621.45201	-785.84954	-1166.96136	1168.11052	-424.61021	-1152.58518	1057.43077	-433.39504	-1204.99606	1024.29421	-408.77649	-1278.49087	1148.74619	-427.44847	-1257.98866	1034.06331	-423.70035	-1136.36364	1170.77094	-777.21365	-1118.85130	1031.90659	-773.80186	-1252.06460	1153.20521	-798.01956	-1227.42132	1014.53640	-789.40766	-1141.18952	1354.50943	-472.81248	-1323.64185	1418.41418	-562.91901	-1125.41607	1349.41693	-733.65173	-1317.90474	1414.37971	-669.89577	-1270.50158	1924.51567	-628.67720	-1243.36361	1885.30574	-453.83112	-1206.33694	1884.42808	-783.28887	-1134.54799	1838.97149	-581.88929	-1130.90030	1833.09287	-640.48426	-1293.39413	1624.84531	-356.63680	-1322.21084	1529.80609	-431.73817	-1321.60993	1537.82213	-344.71375	-1231.62774	1404.84901	-323.29311	-1170.64624	1305.55949	-331.92338	-1210.50851	1298.05615	-311.52318	-1233.95630	1629.26452	-873.05921	-1293.23216	1539.78655	-817.52178	-1265.50250	1541.69239	-881.31302	-1182.24467	1387.07084	-882.53957	-1129.01991	1303.40990	-862.65148	-1163.03810	1289.31165	-879.69694	-1235.21253	1287.60622	-485.32718	-1218.94079	1282.56681	-715.06459	-1222.60965	1290.82379	-511.96440	-1213.37856	1284.33243	-684.09618	
